<svg xmlns="http://www.w3.org/2000/svg" viewBox="0 0 214 48" width="214" height="48">
	<style>
		tspan { white-space:pre }
		.shp0 { fill: #51e14c } 
		.shp1 { fill: #080d1b } 
		.shp2 { fill: #000000 } 
		.txt3 { font-size: 28px;fill: #ffffff;font-family: "Source Han Sans SC Regular";font-weight: 400 } 
		.shp4 { fill: none;stroke: #51e14c;stroke-width: 3 } 
	</style>
	<path id="Layer" class="shp0" d="M213.14,0v47.56h-212.14v-47.56zM151.09,25.27l-19.33,-24.27h-129.76v45.56h129.79z" />
	<path id="Layer" class="shp1" d="M2,46.56h129.79l19.31,-21.29l-19.33,-24.27h-129.77z" />
	<path id="Layer" class="shp2" d="M156.69,34.02c0.52,0.5 1.19,0.75 2.01,0.75c0.82,0 1.49,-0.25 2.01,-0.75c0.52,-0.52 0.78,-1.19 0.78,-2.01c0,-0.82 -0.26,-1.48 -0.78,-1.98c-0.52,-0.52 -1.19,-0.78 -2.01,-0.78c-0.82,0 -1.49,0.26 -2.01,0.78c-0.52,0.5 -0.78,1.16 -0.78,1.98c0,0.82 0.26,1.49 0.78,2.01zM156.69,20.11c0.52,0.5 1.19,0.75 2.01,0.75c0.82,0 1.49,-0.25 2.01,-0.75c0.52,-0.52 0.78,-1.19 0.78,-2.01c0,-0.82 -0.26,-1.48 -0.78,-1.98c-0.52,-0.52 -1.19,-0.78 -2.01,-0.78c-0.82,0 -1.49,0.26 -2.01,0.78c-0.52,0.5 -0.78,1.16 -0.78,1.98c0,0.82 0.26,1.49 0.78,2.01z" />
	<path id="Layer" class="shp2" d="M180.94,24.68c0.82,-0.82 1.23,-1.89 1.23,-3.21v-2.39h-2.9v2.39c0,1.25 -0.53,1.88 -1.6,1.88c-0.39,0 -0.74,-0.11 -1.06,-0.31c-0.3,-0.23 -0.59,-0.5 -0.89,-0.82c-0.28,-0.34 -0.57,-0.7 -0.89,-1.09c-0.3,-0.39 -0.65,-0.74 -1.06,-1.06c-0.38,-0.34 -0.84,-0.62 -1.36,-0.82c-0.52,-0.23 -1.13,-0.34 -1.84,-0.34c-1.34,0 -2.42,0.41 -3.24,1.23c-0.79,0.8 -1.19,1.87 -1.19,3.21v2.39h2.9v-2.39c0,-1.25 0.53,-1.88 1.6,-1.88c0.38,0 0.72,0.11 1.02,0.34c0.32,0.21 0.62,0.48 0.89,0.82c0.3,0.32 0.59,0.67 0.89,1.06c0.32,0.39 0.67,0.75 1.06,1.09c0.41,0.32 0.88,0.59 1.4,0.82c0.52,0.21 1.14,0.31 1.84,0.31c1.35,0 2.41,-0.41 3.2,-1.23z" />
	<path id="Layer" class="shp2" d="M197.71,27.61l-1.26,6.82h-2.39l1.26,-6.82h-5.46l-1.26,6.82h-2.39l1.26,-6.82h-2.9v-2.22h3.31l1.23,-6.48h-3.38v-2.22h3.79l1.26,-6.82h2.39l-1.26,6.82h5.46l1.26,-6.82h2.39l-1.26,6.82h2.9v2.22h-3.31l-1.23,6.48h3.34v2.22zM195.73,25.4l1.23,-6.48h-5.46l-1.23,6.48z" />
	<text id="根因分析 " style="transform: matrix(1,0,0,1,18,35)" >
		<tspan x="0" y="0" class="txt3">根因分析</tspan>
	</text>
	<text id=" " style="transform: matrix(1,0,0,1,81.366,53.261)" >
	</text>
	<path id="Layer" class="shp4" d="M1.5,46.5h210v-45h-210z" />
</svg>